<mxfile host="app.diagrams.net" agent="Mozilla/5.0 (Windows NT 10.0; Win64; x64) AppleWebKit/537.36 (KHTML, like Gecko) Chrome/131.0.0.0 Safari/537.36" version="25.0.1" pages="2">
  <diagram id="fc1f3b67-3c9b-b1b3-7705-706421d27264" name="EER_Car_Rental_System">
    <mxGraphModel dx="2835" dy="2150" grid="1" gridSize="10" guides="1" tooltips="1" connect="1" arrows="1" fold="1" page="1" pageScale="1" pageWidth="850" pageHeight="1100" math="0" shadow="0">
      <root>
        <mxCell id="0" />
        <mxCell id="1" parent="0" />
        <mxCell id="tXQGHVhHLaDfjgxwj78M-10" style="rounded=0;orthogonalLoop=1;jettySize=auto;html=1;exitX=0.75;exitY=0;exitDx=0;exitDy=0;entryX=0.5;entryY=1;entryDx=0;entryDy=0;endArrow=none;endFill=0;" parent="1" source="eeJmUb57VB1KI2UnR3Kf-2" target="tXQGHVhHLaDfjgxwj78M-9" edge="1">
          <mxGeometry relative="1" as="geometry" />
        </mxCell>
        <mxCell id="tXQGHVhHLaDfjgxwj78M-18" style="rounded=0;orthogonalLoop=1;jettySize=auto;html=1;exitX=0;exitY=0.5;exitDx=0;exitDy=0;entryX=1;entryY=0.5;entryDx=0;entryDy=0;endArrow=none;endFill=0;" parent="1" source="eeJmUb57VB1KI2UnR3Kf-2" target="tXQGHVhHLaDfjgxwj78M-17" edge="1">
          <mxGeometry relative="1" as="geometry" />
        </mxCell>
        <mxCell id="tXQGHVhHLaDfjgxwj78M-20" style="rounded=0;orthogonalLoop=1;jettySize=auto;html=1;exitX=0;exitY=0.75;exitDx=0;exitDy=0;entryX=1;entryY=0.5;entryDx=0;entryDy=0;endArrow=none;endFill=0;" parent="1" source="eeJmUb57VB1KI2UnR3Kf-2" target="tXQGHVhHLaDfjgxwj78M-19" edge="1">
          <mxGeometry relative="1" as="geometry" />
        </mxCell>
        <mxCell id="tXQGHVhHLaDfjgxwj78M-23" style="rounded=0;orthogonalLoop=1;jettySize=auto;html=1;exitX=0;exitY=1;exitDx=0;exitDy=0;entryX=1;entryY=0.5;entryDx=0;entryDy=0;endArrow=none;endFill=0;" parent="1" source="eeJmUb57VB1KI2UnR3Kf-2" target="tXQGHVhHLaDfjgxwj78M-22" edge="1">
          <mxGeometry relative="1" as="geometry" />
        </mxCell>
        <mxCell id="tXQGHVhHLaDfjgxwj78M-27" style="rounded=0;orthogonalLoop=1;jettySize=auto;html=1;exitX=0;exitY=0;exitDx=0;exitDy=0;entryX=1;entryY=0.5;entryDx=0;entryDy=0;endArrow=none;endFill=0;" parent="1" source="eeJmUb57VB1KI2UnR3Kf-2" target="tXQGHVhHLaDfjgxwj78M-26" edge="1">
          <mxGeometry relative="1" as="geometry" />
        </mxCell>
        <mxCell id="tXQGHVhHLaDfjgxwj78M-28" style="rounded=0;orthogonalLoop=1;jettySize=auto;html=1;exitX=0.25;exitY=1;exitDx=0;exitDy=0;entryX=1;entryY=0.5;entryDx=0;entryDy=0;endArrow=none;endFill=0;" parent="1" source="eeJmUb57VB1KI2UnR3Kf-2" target="tXQGHVhHLaDfjgxwj78M-24" edge="1">
          <mxGeometry relative="1" as="geometry" />
        </mxCell>
        <mxCell id="tXQGHVhHLaDfjgxwj78M-29" style="rounded=0;orthogonalLoop=1;jettySize=auto;html=1;exitX=0.75;exitY=0;exitDx=0;exitDy=0;entryX=1;entryY=1;entryDx=0;entryDy=0;endArrow=none;endFill=0;" parent="1" source="eeJmUb57VB1KI2UnR3Kf-2" target="tXQGHVhHLaDfjgxwj78M-25" edge="1">
          <mxGeometry relative="1" as="geometry" />
        </mxCell>
        <mxCell id="tXQGHVhHLaDfjgxwj78M-31" style="rounded=0;orthogonalLoop=1;jettySize=auto;html=1;exitX=0.75;exitY=0;exitDx=0;exitDy=0;entryX=0.5;entryY=1;entryDx=0;entryDy=0;endArrow=none;endFill=0;" parent="1" source="eeJmUb57VB1KI2UnR3Kf-2" target="tXQGHVhHLaDfjgxwj78M-30" edge="1">
          <mxGeometry relative="1" as="geometry" />
        </mxCell>
        <mxCell id="tXQGHVhHLaDfjgxwj78M-33" style="rounded=0;orthogonalLoop=1;jettySize=auto;html=1;exitX=0.75;exitY=0;exitDx=0;exitDy=0;entryX=1;entryY=1;entryDx=0;entryDy=0;endArrow=none;endFill=0;" parent="1" source="eeJmUb57VB1KI2UnR3Kf-2" target="tXQGHVhHLaDfjgxwj78M-32" edge="1">
          <mxGeometry relative="1" as="geometry" />
        </mxCell>
        <mxCell id="S8wf1FUIOwpONpwZviLV-5" style="rounded=0;orthogonalLoop=1;jettySize=auto;html=1;exitX=0.25;exitY=1;exitDx=0;exitDy=0;entryX=1;entryY=0;entryDx=0;entryDy=0;endArrow=none;endFill=0;" parent="1" source="eeJmUb57VB1KI2UnR3Kf-2" target="S8wf1FUIOwpONpwZviLV-4" edge="1">
          <mxGeometry relative="1" as="geometry" />
        </mxCell>
        <mxCell id="S8wf1FUIOwpONpwZviLV-7" style="rounded=0;orthogonalLoop=1;jettySize=auto;html=1;exitX=1;exitY=0;exitDx=0;exitDy=0;endArrow=none;endFill=0;" parent="1" source="eeJmUb57VB1KI2UnR3Kf-2" target="S8wf1FUIOwpONpwZviLV-6" edge="1">
          <mxGeometry relative="1" as="geometry" />
        </mxCell>
        <mxCell id="S8wf1FUIOwpONpwZviLV-9" style="rounded=0;orthogonalLoop=1;jettySize=auto;html=1;exitX=0.75;exitY=0;exitDx=0;exitDy=0;endArrow=none;endFill=0;" parent="1" source="eeJmUb57VB1KI2UnR3Kf-2" target="S8wf1FUIOwpONpwZviLV-8" edge="1">
          <mxGeometry relative="1" as="geometry" />
        </mxCell>
        <mxCell id="S8wf1FUIOwpONpwZviLV-11" style="rounded=0;orthogonalLoop=1;jettySize=auto;html=1;exitX=1;exitY=0;exitDx=0;exitDy=0;entryX=0;entryY=1;entryDx=0;entryDy=0;endArrow=none;endFill=0;" parent="1" source="eeJmUb57VB1KI2UnR3Kf-2" target="S8wf1FUIOwpONpwZviLV-10" edge="1">
          <mxGeometry relative="1" as="geometry" />
        </mxCell>
        <mxCell id="eeJmUb57VB1KI2UnR3Kf-2" value="CUSTOMER" style="whiteSpace=wrap;html=1;align=center;" parent="1" vertex="1">
          <mxGeometry x="135" y="210" width="100" height="40" as="geometry" />
        </mxCell>
        <mxCell id="eeJmUb57VB1KI2UnR3Kf-5" style="rounded=1;orthogonalLoop=1;jettySize=auto;html=1;exitX=0.5;exitY=1;exitDx=0;exitDy=0;entryX=0;entryY=0.25;entryDx=0;entryDy=0;endArrow=none;endFill=0;" parent="1" source="tXQGHVhHLaDfjgxwj78M-1" target="eeJmUb57VB1KI2UnR3Kf-2" edge="1">
          <mxGeometry relative="1" as="geometry">
            <mxPoint y="180" as="sourcePoint" />
          </mxGeometry>
        </mxCell>
        <mxCell id="eeJmUb57VB1KI2UnR3Kf-7" style="rounded=1;orthogonalLoop=1;jettySize=auto;html=1;exitX=0.5;exitY=1;exitDx=0;exitDy=0;entryX=0.5;entryY=0;entryDx=0;entryDy=0;endArrow=none;endFill=0;" parent="1" source="eeJmUb57VB1KI2UnR3Kf-4" target="eeJmUb57VB1KI2UnR3Kf-2" edge="1">
          <mxGeometry relative="1" as="geometry" />
        </mxCell>
        <mxCell id="tXQGHVhHLaDfjgxwj78M-3" style="rounded=0;orthogonalLoop=1;jettySize=auto;html=1;exitX=0;exitY=0;exitDx=0;exitDy=0;entryX=0.5;entryY=1;entryDx=0;entryDy=0;endArrow=none;endFill=0;" parent="1" source="eeJmUb57VB1KI2UnR3Kf-4" target="tXQGHVhHLaDfjgxwj78M-2" edge="1">
          <mxGeometry relative="1" as="geometry" />
        </mxCell>
        <mxCell id="tXQGHVhHLaDfjgxwj78M-6" style="rounded=0;orthogonalLoop=1;jettySize=auto;html=1;exitX=0.5;exitY=0;exitDx=0;exitDy=0;entryX=0.5;entryY=1;entryDx=0;entryDy=0;endArrow=none;endFill=0;" parent="1" source="eeJmUb57VB1KI2UnR3Kf-4" target="tXQGHVhHLaDfjgxwj78M-4" edge="1">
          <mxGeometry relative="1" as="geometry" />
        </mxCell>
        <mxCell id="tXQGHVhHLaDfjgxwj78M-7" style="rounded=0;orthogonalLoop=1;jettySize=auto;html=1;exitX=1;exitY=0.5;exitDx=0;exitDy=0;entryX=0.5;entryY=1;entryDx=0;entryDy=0;endArrow=none;endFill=0;" parent="1" source="eeJmUb57VB1KI2UnR3Kf-4" target="tXQGHVhHLaDfjgxwj78M-5" edge="1">
          <mxGeometry relative="1" as="geometry" />
        </mxCell>
        <mxCell id="eeJmUb57VB1KI2UnR3Kf-4" value="NAME" style="ellipse;whiteSpace=wrap;html=1;align=center;" parent="1" vertex="1">
          <mxGeometry x="-80" y="100" width="100" height="40" as="geometry" />
        </mxCell>
        <mxCell id="eeJmUb57VB1KI2UnR3Kf-8" value="MAKES" style="shape=rhombus;perimeter=rhombusPerimeter;whiteSpace=wrap;html=1;align=center;" parent="1" vertex="1">
          <mxGeometry x="390" y="200" width="120" height="60" as="geometry" />
        </mxCell>
        <mxCell id="eeJmUb57VB1KI2UnR3Kf-10" value="HAS" style="shape=rhombus;perimeter=rhombusPerimeter;whiteSpace=wrap;html=1;align=center;" parent="1" vertex="1">
          <mxGeometry x="125" y="350" width="120" height="60" as="geometry" />
        </mxCell>
        <mxCell id="eeJmUb57VB1KI2UnR3Kf-72" value="" style="fontSize=12;html=1;endArrow=ERmandOne;rounded=0;exitX=0.5;exitY=0;exitDx=0;exitDy=0;entryX=0.5;entryY=1;entryDx=0;entryDy=0;" parent="1" source="eeJmUb57VB1KI2UnR3Kf-10" target="eeJmUb57VB1KI2UnR3Kf-2" edge="1">
          <mxGeometry width="100" height="100" relative="1" as="geometry">
            <mxPoint x="360" y="400" as="sourcePoint" />
            <mxPoint x="460" y="300" as="targetPoint" />
          </mxGeometry>
        </mxCell>
        <mxCell id="tXQGHVhHLaDfjgxwj78M-1" value="&lt;u&gt;CUSTOMER ID&lt;/u&gt;" style="ellipse;whiteSpace=wrap;html=1;align=center;" parent="1" vertex="1">
          <mxGeometry x="-100" y="160" width="100" height="40" as="geometry" />
        </mxCell>
        <mxCell id="tXQGHVhHLaDfjgxwj78M-2" value="FNAME" style="ellipse;whiteSpace=wrap;html=1;align=center;" parent="1" vertex="1">
          <mxGeometry x="-230" y="-30" width="100" height="40" as="geometry" />
        </mxCell>
        <mxCell id="tXQGHVhHLaDfjgxwj78M-4" value="MINIT" style="ellipse;whiteSpace=wrap;html=1;align=center;" parent="1" vertex="1">
          <mxGeometry x="-120" width="100" height="40" as="geometry" />
        </mxCell>
        <mxCell id="tXQGHVhHLaDfjgxwj78M-5" value="LNAME" style="ellipse;whiteSpace=wrap;html=1;align=center;" parent="1" vertex="1">
          <mxGeometry x="-50" y="-60" width="100" height="40" as="geometry" />
        </mxCell>
        <mxCell id="tXQGHVhHLaDfjgxwj78M-14" style="rounded=0;orthogonalLoop=1;jettySize=auto;html=1;exitX=0;exitY=0;exitDx=0;exitDy=0;entryX=0.5;entryY=1;entryDx=0;entryDy=0;endArrow=none;endFill=0;" parent="1" source="tXQGHVhHLaDfjgxwj78M-9" target="tXQGHVhHLaDfjgxwj78M-11" edge="1">
          <mxGeometry relative="1" as="geometry" />
        </mxCell>
        <mxCell id="tXQGHVhHLaDfjgxwj78M-15" style="rounded=0;orthogonalLoop=1;jettySize=auto;html=1;exitX=0.5;exitY=0;exitDx=0;exitDy=0;entryX=0.5;entryY=1;entryDx=0;entryDy=0;endArrow=none;endFill=0;" parent="1" source="tXQGHVhHLaDfjgxwj78M-9" target="tXQGHVhHLaDfjgxwj78M-13" edge="1">
          <mxGeometry relative="1" as="geometry" />
        </mxCell>
        <mxCell id="tXQGHVhHLaDfjgxwj78M-16" style="rounded=0;orthogonalLoop=1;jettySize=auto;html=1;exitX=1;exitY=0;exitDx=0;exitDy=0;entryX=0.5;entryY=1;entryDx=0;entryDy=0;endArrow=none;endFill=0;" parent="1" source="tXQGHVhHLaDfjgxwj78M-9" target="tXQGHVhHLaDfjgxwj78M-12" edge="1">
          <mxGeometry relative="1" as="geometry" />
        </mxCell>
        <mxCell id="tXQGHVhHLaDfjgxwj78M-9" value="ADDRESS" style="ellipse;whiteSpace=wrap;html=1;align=center;" parent="1" vertex="1">
          <mxGeometry x="140" y="100" width="100" height="40" as="geometry" />
        </mxCell>
        <mxCell id="tXQGHVhHLaDfjgxwj78M-11" value="ST_ADDRESS" style="ellipse;whiteSpace=wrap;html=1;align=center;" parent="1" vertex="1">
          <mxGeometry x="60" y="-60" width="100" height="40" as="geometry" />
        </mxCell>
        <mxCell id="tXQGHVhHLaDfjgxwj78M-12" value="ZIP_CODE" style="ellipse;whiteSpace=wrap;html=1;align=center;" parent="1" vertex="1">
          <mxGeometry x="200" y="-80" width="100" height="40" as="geometry" />
        </mxCell>
        <mxCell id="tXQGHVhHLaDfjgxwj78M-13" value="CITY" style="ellipse;whiteSpace=wrap;html=1;align=center;" parent="1" vertex="1">
          <mxGeometry x="140" y="-20" width="100" height="40" as="geometry" />
        </mxCell>
        <mxCell id="tXQGHVhHLaDfjgxwj78M-17" value="PHONE_NUMBER" style="ellipse;whiteSpace=wrap;html=1;align=center;" parent="1" vertex="1">
          <mxGeometry x="-210" y="190" width="100" height="40" as="geometry" />
        </mxCell>
        <mxCell id="tXQGHVhHLaDfjgxwj78M-19" value="GENDER" style="ellipse;whiteSpace=wrap;html=1;align=center;" parent="1" vertex="1">
          <mxGeometry x="-210" y="240" width="100" height="40" as="geometry" />
        </mxCell>
        <mxCell id="tXQGHVhHLaDfjgxwj78M-22" value="DATE_OF_BIRTH" style="ellipse;whiteSpace=wrap;html=1;align=center;" parent="1" vertex="1">
          <mxGeometry x="-110" y="270" width="100" height="40" as="geometry" />
        </mxCell>
        <mxCell id="tXQGHVhHLaDfjgxwj78M-24" value="MARITIAL_STATUS" style="ellipse;whiteSpace=wrap;html=1;align=center;" parent="1" vertex="1">
          <mxGeometry x="-190" y="330" width="100" height="40" as="geometry" />
        </mxCell>
        <mxCell id="tXQGHVhHLaDfjgxwj78M-25" value="NATIONALITY" style="ellipse;whiteSpace=wrap;html=1;align=center;" parent="1" vertex="1">
          <mxGeometry x="30" y="120" width="100" height="40" as="geometry" />
        </mxCell>
        <mxCell id="tXQGHVhHLaDfjgxwj78M-26" value="EDUCATION_LEVEL" style="ellipse;whiteSpace=wrap;html=1;align=center;" parent="1" vertex="1">
          <mxGeometry x="-220" y="110" width="100" height="40" as="geometry" />
        </mxCell>
        <mxCell id="tXQGHVhHLaDfjgxwj78M-30" value="PREFERENCES" style="ellipse;shape=doubleEllipse;margin=3;whiteSpace=wrap;html=1;align=center;" parent="1" vertex="1">
          <mxGeometry x="260" y="70" width="100" height="40" as="geometry" />
        </mxCell>
        <mxCell id="tXQGHVhHLaDfjgxwj78M-32" value="IS_GOLD_MEMBER" style="ellipse;whiteSpace=wrap;html=1;align=center;" parent="1" vertex="1">
          <mxGeometry x="20" y="60" width="100" height="40" as="geometry" />
        </mxCell>
        <mxCell id="S8wf1FUIOwpONpwZviLV-2" style="rounded=0;orthogonalLoop=1;jettySize=auto;html=1;exitX=0;exitY=0;exitDx=0;exitDy=0;entryX=1;entryY=0.5;entryDx=0;entryDy=0;endArrow=none;endFill=0;" parent="1" source="tXQGHVhHLaDfjgxwj78M-34" target="S8wf1FUIOwpONpwZviLV-1" edge="1">
          <mxGeometry relative="1" as="geometry" />
        </mxCell>
        <mxCell id="S8wf1FUIOwpONpwZviLV-13" style="rounded=0;orthogonalLoop=1;jettySize=auto;html=1;exitX=0;exitY=0.25;exitDx=0;exitDy=0;entryX=1;entryY=0.5;entryDx=0;entryDy=0;endArrow=none;endFill=0;" parent="1" source="tXQGHVhHLaDfjgxwj78M-34" target="S8wf1FUIOwpONpwZviLV-12" edge="1">
          <mxGeometry relative="1" as="geometry" />
        </mxCell>
        <mxCell id="S8wf1FUIOwpONpwZviLV-21" style="rounded=0;orthogonalLoop=1;jettySize=auto;html=1;exitX=0;exitY=0.5;exitDx=0;exitDy=0;entryX=1;entryY=0.5;entryDx=0;entryDy=0;endArrow=none;endFill=0;" parent="1" source="tXQGHVhHLaDfjgxwj78M-34" target="S8wf1FUIOwpONpwZviLV-14" edge="1">
          <mxGeometry relative="1" as="geometry" />
        </mxCell>
        <mxCell id="S8wf1FUIOwpONpwZviLV-22" style="rounded=0;orthogonalLoop=1;jettySize=auto;html=1;exitX=0;exitY=1;exitDx=0;exitDy=0;entryX=1;entryY=0.5;entryDx=0;entryDy=0;endArrow=none;endFill=0;" parent="1" source="tXQGHVhHLaDfjgxwj78M-34" target="S8wf1FUIOwpONpwZviLV-15" edge="1">
          <mxGeometry relative="1" as="geometry" />
        </mxCell>
        <mxCell id="S8wf1FUIOwpONpwZviLV-23" style="rounded=0;orthogonalLoop=1;jettySize=auto;html=1;exitX=0.25;exitY=1;exitDx=0;exitDy=0;endArrow=none;endFill=0;" parent="1" source="tXQGHVhHLaDfjgxwj78M-34" target="S8wf1FUIOwpONpwZviLV-16" edge="1">
          <mxGeometry relative="1" as="geometry" />
        </mxCell>
        <mxCell id="S8wf1FUIOwpONpwZviLV-24" style="rounded=0;orthogonalLoop=1;jettySize=auto;html=1;exitX=0.5;exitY=1;exitDx=0;exitDy=0;entryX=0.5;entryY=0;entryDx=0;entryDy=0;endArrow=none;endFill=0;" parent="1" source="tXQGHVhHLaDfjgxwj78M-34" target="S8wf1FUIOwpONpwZviLV-17" edge="1">
          <mxGeometry relative="1" as="geometry" />
        </mxCell>
        <mxCell id="S8wf1FUIOwpONpwZviLV-26" style="rounded=0;orthogonalLoop=1;jettySize=auto;html=1;exitX=1;exitY=1;exitDx=0;exitDy=0;entryX=0;entryY=0.5;entryDx=0;entryDy=0;endArrow=none;endFill=0;" parent="1" source="tXQGHVhHLaDfjgxwj78M-34" target="S8wf1FUIOwpONpwZviLV-19" edge="1">
          <mxGeometry relative="1" as="geometry" />
        </mxCell>
        <mxCell id="S8wf1FUIOwpONpwZviLV-27" style="rounded=0;orthogonalLoop=1;jettySize=auto;html=1;exitX=1;exitY=0.5;exitDx=0;exitDy=0;entryX=0;entryY=0.5;entryDx=0;entryDy=0;endArrow=none;endFill=0;" parent="1" source="tXQGHVhHLaDfjgxwj78M-34" target="S8wf1FUIOwpONpwZviLV-20" edge="1">
          <mxGeometry relative="1" as="geometry" />
        </mxCell>
        <mxCell id="S8wf1FUIOwpONpwZviLV-30" style="rounded=0;orthogonalLoop=1;jettySize=auto;html=1;exitX=1;exitY=0.25;exitDx=0;exitDy=0;entryX=0;entryY=1;entryDx=0;entryDy=0;endArrow=none;endFill=0;" parent="1" source="tXQGHVhHLaDfjgxwj78M-34" target="S8wf1FUIOwpONpwZviLV-28" edge="1">
          <mxGeometry relative="1" as="geometry" />
        </mxCell>
        <mxCell id="S8wf1FUIOwpONpwZviLV-31" style="rounded=0;orthogonalLoop=1;jettySize=auto;html=1;exitX=1;exitY=0;exitDx=0;exitDy=0;entryX=0;entryY=0.5;entryDx=0;entryDy=0;endArrow=none;endFill=0;" parent="1" source="tXQGHVhHLaDfjgxwj78M-34" target="S8wf1FUIOwpONpwZviLV-29" edge="1">
          <mxGeometry relative="1" as="geometry" />
        </mxCell>
        <mxCell id="S8wf1FUIOwpONpwZviLV-34" style="rounded=0;orthogonalLoop=1;jettySize=auto;html=1;exitX=0.5;exitY=1;exitDx=0;exitDy=0;endArrow=none;endFill=0;" parent="1" source="tXQGHVhHLaDfjgxwj78M-34" target="S8wf1FUIOwpONpwZviLV-32" edge="1">
          <mxGeometry relative="1" as="geometry" />
        </mxCell>
        <mxCell id="S8wf1FUIOwpONpwZviLV-35" style="rounded=0;orthogonalLoop=1;jettySize=auto;html=1;exitX=0.75;exitY=1;exitDx=0;exitDy=0;entryX=0.5;entryY=0;entryDx=0;entryDy=0;endArrow=none;endFill=0;" parent="1" source="tXQGHVhHLaDfjgxwj78M-34" target="S8wf1FUIOwpONpwZviLV-33" edge="1">
          <mxGeometry relative="1" as="geometry" />
        </mxCell>
        <mxCell id="S8wf1FUIOwpONpwZviLV-38" style="rounded=0;orthogonalLoop=1;jettySize=auto;html=1;exitX=0.25;exitY=1;exitDx=0;exitDy=0;entryX=0.5;entryY=0;entryDx=0;entryDy=0;endArrow=none;endFill=0;" parent="1" source="tXQGHVhHLaDfjgxwj78M-34" target="S8wf1FUIOwpONpwZviLV-36" edge="1">
          <mxGeometry relative="1" as="geometry" />
        </mxCell>
        <mxCell id="S8wf1FUIOwpONpwZviLV-39" style="rounded=0;orthogonalLoop=1;jettySize=auto;html=1;exitX=0;exitY=0.75;exitDx=0;exitDy=0;entryX=1;entryY=0;entryDx=0;entryDy=0;endArrow=none;endFill=0;" parent="1" source="tXQGHVhHLaDfjgxwj78M-34" target="S8wf1FUIOwpONpwZviLV-37" edge="1">
          <mxGeometry relative="1" as="geometry" />
        </mxCell>
        <mxCell id="tXQGHVhHLaDfjgxwj78M-34" value="RENTAL_HISTORY" style="whiteSpace=wrap;html=1;align=center;" parent="1" vertex="1">
          <mxGeometry x="130" y="550" width="110" height="50" as="geometry" />
        </mxCell>
        <mxCell id="tXQGHVhHLaDfjgxwj78M-35" value="" style="fontSize=12;html=1;endArrow=ERoneToMany;rounded=0;entryX=0.5;entryY=0;entryDx=0;entryDy=0;exitX=0.5;exitY=1;exitDx=0;exitDy=0;" parent="1" source="eeJmUb57VB1KI2UnR3Kf-10" target="tXQGHVhHLaDfjgxwj78M-34" edge="1">
          <mxGeometry width="100" height="100" relative="1" as="geometry">
            <mxPoint x="270" y="470" as="sourcePoint" />
            <mxPoint x="370" y="370" as="targetPoint" />
          </mxGeometry>
        </mxCell>
        <mxCell id="S8wf1FUIOwpONpwZviLV-51" style="rounded=0;orthogonalLoop=1;jettySize=auto;html=1;exitX=1;exitY=0;exitDx=0;exitDy=0;entryX=0;entryY=1;entryDx=0;entryDy=0;endArrow=none;endFill=0;" parent="1" source="tXQGHVhHLaDfjgxwj78M-36" target="S8wf1FUIOwpONpwZviLV-40" edge="1">
          <mxGeometry relative="1" as="geometry" />
        </mxCell>
        <mxCell id="S8wf1FUIOwpONpwZviLV-52" style="rounded=0;orthogonalLoop=1;jettySize=auto;html=1;exitX=1;exitY=0.25;exitDx=0;exitDy=0;entryX=0;entryY=1;entryDx=0;entryDy=0;endArrow=none;endFill=0;" parent="1" source="tXQGHVhHLaDfjgxwj78M-36" target="S8wf1FUIOwpONpwZviLV-47" edge="1">
          <mxGeometry relative="1" as="geometry" />
        </mxCell>
        <mxCell id="S8wf1FUIOwpONpwZviLV-53" style="rounded=0;orthogonalLoop=1;jettySize=auto;html=1;exitX=1;exitY=1;exitDx=0;exitDy=0;entryX=0.5;entryY=1;entryDx=0;entryDy=0;endArrow=none;endFill=0;" parent="1" source="tXQGHVhHLaDfjgxwj78M-36" target="S8wf1FUIOwpONpwZviLV-44" edge="1">
          <mxGeometry relative="1" as="geometry" />
        </mxCell>
        <mxCell id="S8wf1FUIOwpONpwZviLV-54" style="rounded=0;orthogonalLoop=1;jettySize=auto;html=1;exitX=1;exitY=0.75;exitDx=0;exitDy=0;entryX=0;entryY=0.5;entryDx=0;entryDy=0;endArrow=none;endFill=0;" parent="1" source="tXQGHVhHLaDfjgxwj78M-36" target="S8wf1FUIOwpONpwZviLV-41" edge="1">
          <mxGeometry relative="1" as="geometry" />
        </mxCell>
        <mxCell id="S8wf1FUIOwpONpwZviLV-55" style="rounded=0;orthogonalLoop=1;jettySize=auto;html=1;exitX=1;exitY=0.5;exitDx=0;exitDy=0;entryX=0;entryY=0.5;entryDx=0;entryDy=0;endArrow=none;endFill=0;" parent="1" source="tXQGHVhHLaDfjgxwj78M-36" target="S8wf1FUIOwpONpwZviLV-42" edge="1">
          <mxGeometry relative="1" as="geometry" />
        </mxCell>
        <mxCell id="S8wf1FUIOwpONpwZviLV-56" style="rounded=0;orthogonalLoop=1;jettySize=auto;html=1;exitX=1;exitY=0.75;exitDx=0;exitDy=0;entryX=0;entryY=0.5;entryDx=0;entryDy=0;endArrow=none;endFill=0;" parent="1" source="tXQGHVhHLaDfjgxwj78M-36" target="S8wf1FUIOwpONpwZviLV-45" edge="1">
          <mxGeometry relative="1" as="geometry" />
        </mxCell>
        <mxCell id="S8wf1FUIOwpONpwZviLV-57" style="rounded=0;orthogonalLoop=1;jettySize=auto;html=1;exitX=0.5;exitY=0;exitDx=0;exitDy=0;entryX=0.5;entryY=1;entryDx=0;entryDy=0;endArrow=none;endFill=0;" parent="1" source="tXQGHVhHLaDfjgxwj78M-36" target="S8wf1FUIOwpONpwZviLV-46" edge="1">
          <mxGeometry relative="1" as="geometry" />
        </mxCell>
        <mxCell id="S8wf1FUIOwpONpwZviLV-58" style="rounded=0;orthogonalLoop=1;jettySize=auto;html=1;exitX=0.25;exitY=0;exitDx=0;exitDy=0;entryX=1;entryY=1;entryDx=0;entryDy=0;endArrow=none;endFill=0;" parent="1" source="tXQGHVhHLaDfjgxwj78M-36" target="S8wf1FUIOwpONpwZviLV-48" edge="1">
          <mxGeometry relative="1" as="geometry" />
        </mxCell>
        <mxCell id="S8wf1FUIOwpONpwZviLV-59" style="rounded=0;orthogonalLoop=1;jettySize=auto;html=1;exitX=0.25;exitY=1;exitDx=0;exitDy=0;entryX=1;entryY=0;entryDx=0;entryDy=0;endArrow=none;endFill=0;" parent="1" source="tXQGHVhHLaDfjgxwj78M-36" target="S8wf1FUIOwpONpwZviLV-50" edge="1">
          <mxGeometry relative="1" as="geometry" />
        </mxCell>
        <mxCell id="S8wf1FUIOwpONpwZviLV-60" style="rounded=0;orthogonalLoop=1;jettySize=auto;html=1;exitX=0;exitY=1;exitDx=0;exitDy=0;entryX=1;entryY=0.5;entryDx=0;entryDy=0;endArrow=none;endFill=0;" parent="1" source="tXQGHVhHLaDfjgxwj78M-36" target="S8wf1FUIOwpONpwZviLV-49" edge="1">
          <mxGeometry relative="1" as="geometry" />
        </mxCell>
        <mxCell id="tXQGHVhHLaDfjgxwj78M-36" value="RESERVATION" style="whiteSpace=wrap;html=1;align=center;" parent="1" vertex="1">
          <mxGeometry x="670" y="210" width="100" height="40" as="geometry" />
        </mxCell>
        <mxCell id="tXQGHVhHLaDfjgxwj78M-38" value="" style="fontSize=12;html=1;endArrow=ERzeroToMany;endFill=1;rounded=0;entryX=0;entryY=0.5;entryDx=0;entryDy=0;exitX=1;exitY=0.5;exitDx=0;exitDy=0;" parent="1" source="eeJmUb57VB1KI2UnR3Kf-8" target="tXQGHVhHLaDfjgxwj78M-36" edge="1">
          <mxGeometry width="100" height="100" relative="1" as="geometry">
            <mxPoint x="460" y="200" as="sourcePoint" />
            <mxPoint x="560" y="100" as="targetPoint" />
          </mxGeometry>
        </mxCell>
        <mxCell id="tXQGHVhHLaDfjgxwj78M-39" value="" style="fontSize=12;html=1;endArrow=ERmandOne;rounded=0;exitX=0;exitY=0.5;exitDx=0;exitDy=0;entryX=1;entryY=0.5;entryDx=0;entryDy=0;" parent="1" source="eeJmUb57VB1KI2UnR3Kf-8" target="eeJmUb57VB1KI2UnR3Kf-2" edge="1">
          <mxGeometry width="100" height="100" relative="1" as="geometry">
            <mxPoint x="260" y="360" as="sourcePoint" />
            <mxPoint x="260" y="260" as="targetPoint" />
          </mxGeometry>
        </mxCell>
        <mxCell id="S8wf1FUIOwpONpwZviLV-73" style="rounded=0;orthogonalLoop=1;jettySize=auto;html=1;exitX=0.25;exitY=0;exitDx=0;exitDy=0;entryX=1;entryY=1;entryDx=0;entryDy=0;endArrow=none;endFill=0;" parent="1" source="tXQGHVhHLaDfjgxwj78M-40" target="S8wf1FUIOwpONpwZviLV-69" edge="1">
          <mxGeometry relative="1" as="geometry" />
        </mxCell>
        <mxCell id="S8wf1FUIOwpONpwZviLV-74" style="rounded=0;orthogonalLoop=1;jettySize=auto;html=1;exitX=0;exitY=0.25;exitDx=0;exitDy=0;entryX=1;entryY=1;entryDx=0;entryDy=0;endArrow=none;endFill=0;" parent="1" source="tXQGHVhHLaDfjgxwj78M-40" target="S8wf1FUIOwpONpwZviLV-70" edge="1">
          <mxGeometry relative="1" as="geometry" />
        </mxCell>
        <mxCell id="S8wf1FUIOwpONpwZviLV-75" style="rounded=0;orthogonalLoop=1;jettySize=auto;html=1;exitX=0.75;exitY=0;exitDx=0;exitDy=0;entryX=0;entryY=0.5;entryDx=0;entryDy=0;endArrow=none;endFill=0;" parent="1" source="tXQGHVhHLaDfjgxwj78M-40" target="S8wf1FUIOwpONpwZviLV-67" edge="1">
          <mxGeometry relative="1" as="geometry" />
        </mxCell>
        <mxCell id="S8wf1FUIOwpONpwZviLV-76" style="rounded=0;orthogonalLoop=1;jettySize=auto;html=1;exitX=1;exitY=0.25;exitDx=0;exitDy=0;entryX=0;entryY=0.5;entryDx=0;entryDy=0;endArrow=none;endFill=0;" parent="1" source="tXQGHVhHLaDfjgxwj78M-40" target="S8wf1FUIOwpONpwZviLV-68" edge="1">
          <mxGeometry relative="1" as="geometry" />
        </mxCell>
        <mxCell id="S8wf1FUIOwpONpwZviLV-77" style="rounded=0;orthogonalLoop=1;jettySize=auto;html=1;exitX=1;exitY=0.5;exitDx=0;exitDy=0;entryX=0;entryY=0.5;entryDx=0;entryDy=0;endArrow=none;endFill=0;" parent="1" source="tXQGHVhHLaDfjgxwj78M-40" target="S8wf1FUIOwpONpwZviLV-71" edge="1">
          <mxGeometry relative="1" as="geometry" />
        </mxCell>
        <mxCell id="S8wf1FUIOwpONpwZviLV-78" style="rounded=0;orthogonalLoop=1;jettySize=auto;html=1;exitX=0;exitY=0.25;exitDx=0;exitDy=0;entryX=1;entryY=0.5;entryDx=0;entryDy=0;endArrow=none;endFill=0;" parent="1" source="tXQGHVhHLaDfjgxwj78M-40" target="S8wf1FUIOwpONpwZviLV-72" edge="1">
          <mxGeometry relative="1" as="geometry" />
        </mxCell>
        <mxCell id="tXQGHVhHLaDfjgxwj78M-40" value="VEHICLE_TYPE" style="whiteSpace=wrap;html=1;align=center;" parent="1" vertex="1">
          <mxGeometry x="680" y="500" width="100" height="40" as="geometry" />
        </mxCell>
        <mxCell id="tXQGHVhHLaDfjgxwj78M-41" value="CONTAINS" style="shape=rhombus;perimeter=rhombusPerimeter;whiteSpace=wrap;html=1;align=center;" parent="1" vertex="1">
          <mxGeometry x="660" y="320" width="120" height="60" as="geometry" />
        </mxCell>
        <mxCell id="tXQGHVhHLaDfjgxwj78M-42" value="" style="fontSize=12;html=1;endArrow=ERzeroToMany;endFill=1;rounded=0;entryX=0.5;entryY=1;entryDx=0;entryDy=0;exitX=0.5;exitY=0;exitDx=0;exitDy=0;" parent="1" source="tXQGHVhHLaDfjgxwj78M-41" target="tXQGHVhHLaDfjgxwj78M-36" edge="1">
          <mxGeometry width="100" height="100" relative="1" as="geometry">
            <mxPoint x="460" y="370" as="sourcePoint" />
            <mxPoint x="560" y="270" as="targetPoint" />
          </mxGeometry>
        </mxCell>
        <mxCell id="tXQGHVhHLaDfjgxwj78M-43" value="" style="fontSize=12;html=1;endArrow=ERmandOne;rounded=0;entryX=0.5;entryY=0;entryDx=0;entryDy=0;exitX=0.5;exitY=1;exitDx=0;exitDy=0;" parent="1" source="tXQGHVhHLaDfjgxwj78M-41" target="tXQGHVhHLaDfjgxwj78M-40" edge="1">
          <mxGeometry width="100" height="100" relative="1" as="geometry">
            <mxPoint x="460" y="370" as="sourcePoint" />
            <mxPoint x="560" y="270" as="targetPoint" />
          </mxGeometry>
        </mxCell>
        <mxCell id="S8wf1FUIOwpONpwZviLV-93" style="rounded=0;orthogonalLoop=1;jettySize=auto;html=1;exitX=0;exitY=0.25;exitDx=0;exitDy=0;entryX=1;entryY=0.5;entryDx=0;entryDy=0;endArrow=none;endFill=0;" parent="1" source="tXQGHVhHLaDfjgxwj78M-44" target="S8wf1FUIOwpONpwZviLV-81" edge="1">
          <mxGeometry relative="1" as="geometry" />
        </mxCell>
        <mxCell id="S8wf1FUIOwpONpwZviLV-94" style="rounded=0;orthogonalLoop=1;jettySize=auto;html=1;exitX=0;exitY=0.5;exitDx=0;exitDy=0;entryX=1;entryY=0.5;entryDx=0;entryDy=0;endArrow=none;endFill=0;" parent="1" source="tXQGHVhHLaDfjgxwj78M-44" target="S8wf1FUIOwpONpwZviLV-79" edge="1">
          <mxGeometry relative="1" as="geometry" />
        </mxCell>
        <mxCell id="S8wf1FUIOwpONpwZviLV-95" style="rounded=0;orthogonalLoop=1;jettySize=auto;html=1;exitX=0;exitY=0.75;exitDx=0;exitDy=0;entryX=1;entryY=0.5;entryDx=0;entryDy=0;endArrow=none;endFill=0;" parent="1" source="tXQGHVhHLaDfjgxwj78M-44" target="S8wf1FUIOwpONpwZviLV-80" edge="1">
          <mxGeometry relative="1" as="geometry" />
        </mxCell>
        <mxCell id="S8wf1FUIOwpONpwZviLV-96" style="rounded=0;orthogonalLoop=1;jettySize=auto;html=1;exitX=0;exitY=1;exitDx=0;exitDy=0;entryX=1;entryY=0.5;entryDx=0;entryDy=0;endArrow=none;endFill=0;" parent="1" source="tXQGHVhHLaDfjgxwj78M-44" target="S8wf1FUIOwpONpwZviLV-82" edge="1">
          <mxGeometry relative="1" as="geometry" />
        </mxCell>
        <mxCell id="S8wf1FUIOwpONpwZviLV-97" style="rounded=0;orthogonalLoop=1;jettySize=auto;html=1;exitX=0.25;exitY=1;exitDx=0;exitDy=0;entryX=1;entryY=0;entryDx=0;entryDy=0;endArrow=none;endFill=0;" parent="1" source="tXQGHVhHLaDfjgxwj78M-44" target="S8wf1FUIOwpONpwZviLV-84" edge="1">
          <mxGeometry relative="1" as="geometry" />
        </mxCell>
        <mxCell id="S8wf1FUIOwpONpwZviLV-98" style="rounded=0;orthogonalLoop=1;jettySize=auto;html=1;exitX=0.5;exitY=1;exitDx=0;exitDy=0;entryX=0.5;entryY=0;entryDx=0;entryDy=0;endArrow=none;endFill=0;" parent="1" source="tXQGHVhHLaDfjgxwj78M-44" target="S8wf1FUIOwpONpwZviLV-85" edge="1">
          <mxGeometry relative="1" as="geometry" />
        </mxCell>
        <mxCell id="S8wf1FUIOwpONpwZviLV-99" style="rounded=0;orthogonalLoop=1;jettySize=auto;html=1;exitX=0.5;exitY=1;exitDx=0;exitDy=0;entryX=0.5;entryY=0;entryDx=0;entryDy=0;endArrow=none;endFill=0;" parent="1" source="tXQGHVhHLaDfjgxwj78M-44" target="S8wf1FUIOwpONpwZviLV-86" edge="1">
          <mxGeometry relative="1" as="geometry" />
        </mxCell>
        <mxCell id="S8wf1FUIOwpONpwZviLV-100" style="rounded=0;orthogonalLoop=1;jettySize=auto;html=1;exitX=0.75;exitY=1;exitDx=0;exitDy=0;entryX=0;entryY=0;entryDx=0;entryDy=0;endArrow=none;endFill=0;" parent="1" source="tXQGHVhHLaDfjgxwj78M-44" target="S8wf1FUIOwpONpwZviLV-87" edge="1">
          <mxGeometry relative="1" as="geometry" />
        </mxCell>
        <mxCell id="S8wf1FUIOwpONpwZviLV-101" style="rounded=0;orthogonalLoop=1;jettySize=auto;html=1;exitX=1;exitY=1;exitDx=0;exitDy=0;entryX=0;entryY=0.5;entryDx=0;entryDy=0;endArrow=none;endFill=0;" parent="1" source="tXQGHVhHLaDfjgxwj78M-44" target="S8wf1FUIOwpONpwZviLV-88" edge="1">
          <mxGeometry relative="1" as="geometry" />
        </mxCell>
        <mxCell id="S8wf1FUIOwpONpwZviLV-102" style="rounded=0;orthogonalLoop=1;jettySize=auto;html=1;exitX=1;exitY=0.75;exitDx=0;exitDy=0;entryX=0;entryY=0.5;entryDx=0;entryDy=0;endArrow=none;endFill=0;" parent="1" source="tXQGHVhHLaDfjgxwj78M-44" target="S8wf1FUIOwpONpwZviLV-89" edge="1">
          <mxGeometry relative="1" as="geometry" />
        </mxCell>
        <mxCell id="S8wf1FUIOwpONpwZviLV-103" style="rounded=0;orthogonalLoop=1;jettySize=auto;html=1;exitX=1;exitY=0.5;exitDx=0;exitDy=0;entryX=0;entryY=0.5;entryDx=0;entryDy=0;endArrow=none;endFill=0;" parent="1" source="tXQGHVhHLaDfjgxwj78M-44" target="S8wf1FUIOwpONpwZviLV-90" edge="1">
          <mxGeometry relative="1" as="geometry" />
        </mxCell>
        <mxCell id="S8wf1FUIOwpONpwZviLV-104" style="rounded=0;orthogonalLoop=1;jettySize=auto;html=1;exitX=1;exitY=0.25;exitDx=0;exitDy=0;entryX=0;entryY=0.5;entryDx=0;entryDy=0;endArrow=none;endFill=0;" parent="1" source="tXQGHVhHLaDfjgxwj78M-44" target="S8wf1FUIOwpONpwZviLV-91" edge="1">
          <mxGeometry relative="1" as="geometry" />
        </mxCell>
        <mxCell id="S8wf1FUIOwpONpwZviLV-105" style="rounded=0;orthogonalLoop=1;jettySize=auto;html=1;exitX=1;exitY=0;exitDx=0;exitDy=0;entryX=0;entryY=0.5;entryDx=0;entryDy=0;endArrow=none;endFill=0;" parent="1" source="tXQGHVhHLaDfjgxwj78M-44" target="S8wf1FUIOwpONpwZviLV-92" edge="1">
          <mxGeometry relative="1" as="geometry" />
        </mxCell>
        <mxCell id="tXQGHVhHLaDfjgxwj78M-44" value="VEHICLE" style="whiteSpace=wrap;html=1;align=center;" parent="1" vertex="1">
          <mxGeometry x="550" y="940" width="100" height="40" as="geometry" />
        </mxCell>
        <mxCell id="tXQGHVhHLaDfjgxwj78M-47" value="INCLUDES" style="shape=rhombus;perimeter=rhombusPerimeter;whiteSpace=wrap;html=1;align=center;" parent="1" vertex="1">
          <mxGeometry x="540" y="730" width="120" height="60" as="geometry" />
        </mxCell>
        <mxCell id="tXQGHVhHLaDfjgxwj78M-48" value="CHECKS" style="shape=rhombus;perimeter=rhombusPerimeter;whiteSpace=wrap;html=1;align=center;" parent="1" vertex="1">
          <mxGeometry x="1120" y="730" width="120" height="60" as="geometry" />
        </mxCell>
        <mxCell id="S8wf1FUIOwpONpwZviLV-108" style="rounded=0;orthogonalLoop=1;jettySize=auto;html=1;exitX=0.25;exitY=1;exitDx=0;exitDy=0;entryX=0.5;entryY=0;entryDx=0;entryDy=0;endArrow=none;endFill=0;" parent="1" source="tXQGHVhHLaDfjgxwj78M-49" target="S8wf1FUIOwpONpwZviLV-106" edge="1">
          <mxGeometry relative="1" as="geometry" />
        </mxCell>
        <mxCell id="S8wf1FUIOwpONpwZviLV-109" style="rounded=0;orthogonalLoop=1;jettySize=auto;html=1;exitX=0.75;exitY=1;exitDx=0;exitDy=0;entryX=0.5;entryY=0;entryDx=0;entryDy=0;endArrow=none;endFill=0;" parent="1" source="tXQGHVhHLaDfjgxwj78M-49" target="S8wf1FUIOwpONpwZviLV-107" edge="1">
          <mxGeometry relative="1" as="geometry" />
        </mxCell>
        <mxCell id="tXQGHVhHLaDfjgxwj78M-49" value="AVALIABLITY" style="whiteSpace=wrap;html=1;align=center;" parent="1" vertex="1">
          <mxGeometry x="1130" y="960" width="100" height="40" as="geometry" />
        </mxCell>
        <mxCell id="tXQGHVhHLaDfjgxwj78M-54" value="" style="fontSize=12;html=1;endArrow=ERzeroToMany;endFill=1;rounded=0;entryX=0.5;entryY=0;entryDx=0;entryDy=0;exitX=0.5;exitY=1;exitDx=0;exitDy=0;" parent="1" source="tXQGHVhHLaDfjgxwj78M-47" target="tXQGHVhHLaDfjgxwj78M-44" edge="1">
          <mxGeometry width="100" height="100" relative="1" as="geometry">
            <mxPoint x="400" y="740" as="sourcePoint" />
            <mxPoint x="500" y="640" as="targetPoint" />
          </mxGeometry>
        </mxCell>
        <mxCell id="tXQGHVhHLaDfjgxwj78M-55" value="" style="fontSize=12;html=1;endArrow=ERmandOne;rounded=0;entryX=0;entryY=0.75;entryDx=0;entryDy=0;exitX=0.5;exitY=0;exitDx=0;exitDy=0;" parent="1" source="tXQGHVhHLaDfjgxwj78M-47" target="tXQGHVhHLaDfjgxwj78M-40" edge="1">
          <mxGeometry width="100" height="100" relative="1" as="geometry">
            <mxPoint x="460" y="530" as="sourcePoint" />
            <mxPoint x="560" y="430" as="targetPoint" />
          </mxGeometry>
        </mxCell>
        <mxCell id="tXQGHVhHLaDfjgxwj78M-56" value="" style="fontSize=12;html=1;endArrow=ERoneToMany;rounded=0;entryX=0.5;entryY=0;entryDx=0;entryDy=0;exitX=0.5;exitY=1;exitDx=0;exitDy=0;" parent="1" source="tXQGHVhHLaDfjgxwj78M-48" target="tXQGHVhHLaDfjgxwj78M-49" edge="1">
          <mxGeometry width="100" height="100" relative="1" as="geometry">
            <mxPoint x="460" y="530" as="sourcePoint" />
            <mxPoint x="560" y="430" as="targetPoint" />
          </mxGeometry>
        </mxCell>
        <mxCell id="tXQGHVhHLaDfjgxwj78M-57" value="" style="fontSize=12;html=1;endArrow=ERmandOne;rounded=0;entryX=1;entryY=0.5;entryDx=0;entryDy=0;exitX=0.5;exitY=0;exitDx=0;exitDy=0;" parent="1" source="tXQGHVhHLaDfjgxwj78M-48" target="tXQGHVhHLaDfjgxwj78M-40" edge="1">
          <mxGeometry width="100" height="100" relative="1" as="geometry">
            <mxPoint x="460" y="530" as="sourcePoint" />
            <mxPoint x="560" y="430" as="targetPoint" />
          </mxGeometry>
        </mxCell>
        <mxCell id="tXQGHVhHLaDfjgxwj78M-58" value="CHECKS" style="shape=rhombus;perimeter=rhombusPerimeter;whiteSpace=wrap;html=1;align=center;" parent="1" vertex="1">
          <mxGeometry x="810" y="40" width="120" height="60" as="geometry" />
        </mxCell>
        <mxCell id="S8wf1FUIOwpONpwZviLV-62" style="rounded=0;orthogonalLoop=1;jettySize=auto;html=1;exitX=0.25;exitY=0;exitDx=0;exitDy=0;entryX=0.5;entryY=1;entryDx=0;entryDy=0;endArrow=none;endFill=0;" parent="1" source="tXQGHVhHLaDfjgxwj78M-60" target="S8wf1FUIOwpONpwZviLV-61" edge="1">
          <mxGeometry relative="1" as="geometry" />
        </mxCell>
        <mxCell id="S8wf1FUIOwpONpwZviLV-65" style="rounded=0;orthogonalLoop=1;jettySize=auto;html=1;exitX=1;exitY=0;exitDx=0;exitDy=0;entryX=0.5;entryY=1;entryDx=0;entryDy=0;endArrow=none;endFill=0;" parent="1" source="tXQGHVhHLaDfjgxwj78M-60" target="S8wf1FUIOwpONpwZviLV-64" edge="1">
          <mxGeometry relative="1" as="geometry" />
        </mxCell>
        <mxCell id="S8wf1FUIOwpONpwZviLV-66" style="rounded=0;orthogonalLoop=1;jettySize=auto;html=1;exitX=0.75;exitY=0;exitDx=0;exitDy=0;entryX=0.5;entryY=1;entryDx=0;entryDy=0;endArrow=none;endFill=0;" parent="1" source="tXQGHVhHLaDfjgxwj78M-60" target="S8wf1FUIOwpONpwZviLV-63" edge="1">
          <mxGeometry relative="1" as="geometry" />
        </mxCell>
        <mxCell id="tXQGHVhHLaDfjgxwj78M-60" value="INSURANCE" style="whiteSpace=wrap;html=1;align=center;" parent="1" vertex="1">
          <mxGeometry x="1010" y="-150" width="100" height="40" as="geometry" />
        </mxCell>
        <mxCell id="tXQGHVhHLaDfjgxwj78M-62" value="" style="fontSize=12;html=1;endArrow=ERzeroToMany;endFill=1;rounded=0;entryX=0.75;entryY=0;entryDx=0;entryDy=0;exitX=0.5;exitY=1;exitDx=0;exitDy=0;" parent="1" source="tXQGHVhHLaDfjgxwj78M-58" target="tXQGHVhHLaDfjgxwj78M-36" edge="1">
          <mxGeometry width="100" height="100" relative="1" as="geometry">
            <mxPoint x="460" y="370" as="sourcePoint" />
            <mxPoint x="560" y="270" as="targetPoint" />
          </mxGeometry>
        </mxCell>
        <mxCell id="tXQGHVhHLaDfjgxwj78M-63" value="" style="fontSize=12;html=1;endArrow=ERzeroToOne;endFill=1;rounded=0;entryX=0.5;entryY=1;entryDx=0;entryDy=0;exitX=1;exitY=0;exitDx=0;exitDy=0;" parent="1" source="tXQGHVhHLaDfjgxwj78M-58" target="tXQGHVhHLaDfjgxwj78M-60" edge="1">
          <mxGeometry width="100" height="100" relative="1" as="geometry">
            <mxPoint x="460" y="200" as="sourcePoint" />
            <mxPoint x="560" y="100" as="targetPoint" />
          </mxGeometry>
        </mxCell>
        <mxCell id="S8wf1FUIOwpONpwZviLV-1" value="&lt;u&gt;Reservation Number&lt;/u&gt;" style="ellipse;whiteSpace=wrap;html=1;align=center;" parent="1" vertex="1">
          <mxGeometry x="-130" y="510" width="100" height="40" as="geometry" />
        </mxCell>
        <mxCell id="S8wf1FUIOwpONpwZviLV-4" value="AGE" style="ellipse;whiteSpace=wrap;html=1;align=center;dashed=1;" parent="1" vertex="1">
          <mxGeometry x="-50" y="330" width="100" height="40" as="geometry" />
        </mxCell>
        <mxCell id="S8wf1FUIOwpONpwZviLV-6" value="&lt;font style=&quot;font-size: 9px;&quot;&gt;PREFFERED_CREDIT_CARD_NUMBER&lt;/font&gt;" style="ellipse;whiteSpace=wrap;html=1;align=center;" parent="1" vertex="1">
          <mxGeometry x="310" y="110" width="130" height="40" as="geometry" />
        </mxCell>
        <mxCell id="S8wf1FUIOwpONpwZviLV-8" value="&lt;font style=&quot;font-size: 8px;&quot;&gt;DRIVER_LICENSE_NUMBER&lt;/font&gt;" style="ellipse;whiteSpace=wrap;html=1;align=center;" parent="1" vertex="1">
          <mxGeometry x="240" width="100" height="40" as="geometry" />
        </mxCell>
        <mxCell id="S8wf1FUIOwpONpwZviLV-10" value="E-MAIL" style="ellipse;whiteSpace=wrap;html=1;align=center;" parent="1" vertex="1">
          <mxGeometry x="300" y="170" width="100" height="40" as="geometry" />
        </mxCell>
        <mxCell id="S8wf1FUIOwpONpwZviLV-12" value="KM_DRIVEN" style="ellipse;whiteSpace=wrap;html=1;align=center;dashed=1;" parent="1" vertex="1">
          <mxGeometry x="-130" y="560" width="100" height="40" as="geometry" />
        </mxCell>
        <mxCell id="S8wf1FUIOwpONpwZviLV-14" value="PICKUP_DATE" style="ellipse;whiteSpace=wrap;html=1;align=center;" parent="1" vertex="1">
          <mxGeometry x="-130" y="610" width="100" height="40" as="geometry" />
        </mxCell>
        <mxCell id="S8wf1FUIOwpONpwZviLV-15" value="PICKUP_PLACE" style="ellipse;whiteSpace=wrap;html=1;align=center;" parent="1" vertex="1">
          <mxGeometry x="-130" y="660" width="100" height="40" as="geometry" />
        </mxCell>
        <mxCell id="S8wf1FUIOwpONpwZviLV-16" value="&lt;font style=&quot;font-size: 10px;&quot;&gt;ESTIMATED_RETURN_DATE&lt;/font&gt;" style="ellipse;whiteSpace=wrap;html=1;align=center;" parent="1" vertex="1">
          <mxGeometry x="-20" y="690" width="100" height="40" as="geometry" />
        </mxCell>
        <mxCell id="S8wf1FUIOwpONpwZviLV-17" value="&lt;font style=&quot;font-size: 10px;&quot;&gt;ACTUAL_RETURN_DATE&lt;/font&gt;" style="ellipse;whiteSpace=wrap;html=1;align=center;" parent="1" vertex="1">
          <mxGeometry x="110" y="690" width="100" height="40" as="geometry" />
        </mxCell>
        <mxCell id="S8wf1FUIOwpONpwZviLV-18" value="&lt;span style=&quot;font-size: 10px;&quot;&gt;RETURN_PLACE&lt;/span&gt;" style="ellipse;whiteSpace=wrap;html=1;align=center;" parent="1" vertex="1">
          <mxGeometry x="220" y="660" width="100" height="40" as="geometry" />
        </mxCell>
        <mxCell id="S8wf1FUIOwpONpwZviLV-19" value="&lt;span style=&quot;font-size: 10px;&quot;&gt;PENALTY_COST&lt;/span&gt;" style="ellipse;whiteSpace=wrap;html=1;align=center;" parent="1" vertex="1">
          <mxGeometry x="270" y="610" width="100" height="40" as="geometry" />
        </mxCell>
        <mxCell id="S8wf1FUIOwpONpwZviLV-20" value="&lt;span style=&quot;font-size: 10px;&quot;&gt;TOTAL_COST&lt;/span&gt;" style="ellipse;whiteSpace=wrap;html=1;align=center;" parent="1" vertex="1">
          <mxGeometry x="270" y="560" width="100" height="40" as="geometry" />
        </mxCell>
        <mxCell id="S8wf1FUIOwpONpwZviLV-25" style="rounded=0;orthogonalLoop=1;jettySize=auto;html=1;exitX=0.75;exitY=1;exitDx=0;exitDy=0;entryX=0.327;entryY=0.203;entryDx=0;entryDy=0;entryPerimeter=0;endArrow=none;endFill=0;" parent="1" source="tXQGHVhHLaDfjgxwj78M-34" target="S8wf1FUIOwpONpwZviLV-18" edge="1">
          <mxGeometry relative="1" as="geometry" />
        </mxCell>
        <mxCell id="S8wf1FUIOwpONpwZviLV-28" value="&lt;span style=&quot;font-size: 10px;&quot;&gt;INITIAL_KM_READING&lt;/span&gt;" style="ellipse;whiteSpace=wrap;html=1;align=center;" parent="1" vertex="1">
          <mxGeometry x="270" y="520" width="100" height="40" as="geometry" />
        </mxCell>
        <mxCell id="S8wf1FUIOwpONpwZviLV-29" value="&lt;span style=&quot;font-size: 10px;&quot;&gt;FINAL_KM_READING&lt;/span&gt;" style="ellipse;whiteSpace=wrap;html=1;align=center;" parent="1" vertex="1">
          <mxGeometry x="270" y="480" width="100" height="40" as="geometry" />
        </mxCell>
        <mxCell id="S8wf1FUIOwpONpwZviLV-32" value="&lt;span style=&quot;font-size: 10px;&quot;&gt;INITAL_GAS_LEVEL&lt;/span&gt;" style="ellipse;whiteSpace=wrap;html=1;align=center;" parent="1" vertex="1">
          <mxGeometry x="190" y="740" width="100" height="40" as="geometry" />
        </mxCell>
        <mxCell id="S8wf1FUIOwpONpwZviLV-33" value="&lt;span style=&quot;font-size: 10px;&quot;&gt;FINAL_GAS_LEVEL&lt;/span&gt;" style="ellipse;whiteSpace=wrap;html=1;align=center;" parent="1" vertex="1">
          <mxGeometry x="325" y="700" width="100" height="40" as="geometry" />
        </mxCell>
        <mxCell id="S8wf1FUIOwpONpwZviLV-36" value="&lt;span style=&quot;font-size: 10px;&quot;&gt;IS_DAMAGED&lt;/span&gt;" style="ellipse;whiteSpace=wrap;html=1;align=center;" parent="1" vertex="1">
          <mxGeometry x="40" y="740" width="100" height="40" as="geometry" />
        </mxCell>
        <mxCell id="S8wf1FUIOwpONpwZviLV-37" value="&lt;span style=&quot;font-size: 10px;&quot;&gt;DAMAGE_AMOUNT&lt;/span&gt;" style="ellipse;whiteSpace=wrap;html=1;align=center;" parent="1" vertex="1">
          <mxGeometry x="-160" y="720" width="100" height="40" as="geometry" />
        </mxCell>
        <mxCell id="S8wf1FUIOwpONpwZviLV-40" value="&lt;u&gt;Reservation_Number&lt;/u&gt;" style="ellipse;whiteSpace=wrap;html=1;align=center;" parent="1" vertex="1">
          <mxGeometry x="810" y="160" width="100" height="40" as="geometry" />
        </mxCell>
        <mxCell id="S8wf1FUIOwpONpwZviLV-41" value="Reservation_Date" style="ellipse;whiteSpace=wrap;html=1;align=center;" parent="1" vertex="1">
          <mxGeometry x="1010" y="220" width="100" height="40" as="geometry" />
        </mxCell>
        <mxCell id="S8wf1FUIOwpONpwZviLV-42" value="&lt;font style=&quot;font-size: 9px;&quot;&gt;RESERVATION_CANCELATION_DATE&lt;/font&gt;" style="ellipse;whiteSpace=wrap;html=1;align=center;" parent="1" vertex="1">
          <mxGeometry x="990" y="180" width="100" height="40" as="geometry" />
        </mxCell>
        <mxCell id="S8wf1FUIOwpONpwZviLV-44" value="PICKUP_DATE" style="ellipse;whiteSpace=wrap;html=1;align=center;" parent="1" vertex="1">
          <mxGeometry x="780" y="290" width="100" height="40" as="geometry" />
        </mxCell>
        <mxCell id="S8wf1FUIOwpONpwZviLV-45" value="PICKUP_PLACE" style="ellipse;whiteSpace=wrap;html=1;align=center;" parent="1" vertex="1">
          <mxGeometry x="920" y="260" width="100" height="40" as="geometry" />
        </mxCell>
        <mxCell id="S8wf1FUIOwpONpwZviLV-46" value="&lt;font style=&quot;font-size: 10px;&quot;&gt;ESTIMATED_RETURN_DATE&lt;/font&gt;" style="ellipse;whiteSpace=wrap;html=1;align=center;" parent="1" vertex="1">
          <mxGeometry x="670" y="130" width="100" height="40" as="geometry" />
        </mxCell>
        <mxCell id="S8wf1FUIOwpONpwZviLV-47" value="RETURN_PLACE" style="ellipse;whiteSpace=wrap;html=1;align=center;" parent="1" vertex="1">
          <mxGeometry x="950" y="140" width="100" height="40" as="geometry" />
        </mxCell>
        <mxCell id="S8wf1FUIOwpONpwZviLV-48" value="&lt;font style=&quot;font-size: 10px;&quot;&gt;NUMBER_OF_DATE_RENTED&lt;/font&gt;" style="ellipse;whiteSpace=wrap;html=1;align=center;dashed=1;" parent="1" vertex="1">
          <mxGeometry x="570" y="160" width="100" height="40" as="geometry" />
        </mxCell>
        <mxCell id="S8wf1FUIOwpONpwZviLV-49" value="ESTIMATED_COST" style="ellipse;whiteSpace=wrap;html=1;align=center;" parent="1" vertex="1">
          <mxGeometry x="530" y="240" width="100" height="40" as="geometry" />
        </mxCell>
        <mxCell id="S8wf1FUIOwpONpwZviLV-50" value="DISCOUNT_RATE" style="ellipse;whiteSpace=wrap;html=1;align=center;" parent="1" vertex="1">
          <mxGeometry x="560" y="290" width="100" height="40" as="geometry" />
        </mxCell>
        <mxCell id="S8wf1FUIOwpONpwZviLV-61" value="&lt;u&gt;INSURANCE_ID&lt;/u&gt;" style="ellipse;whiteSpace=wrap;html=1;align=center;" parent="1" vertex="1">
          <mxGeometry x="940" y="-240" width="100" height="40" as="geometry" />
        </mxCell>
        <mxCell id="S8wf1FUIOwpONpwZviLV-63" value="COMPANY_NAME" style="ellipse;whiteSpace=wrap;html=1;align=center;" parent="1" vertex="1">
          <mxGeometry x="1050" y="-240" width="100" height="40" as="geometry" />
        </mxCell>
        <mxCell id="S8wf1FUIOwpONpwZviLV-64" value="&lt;font style=&quot;font-size: 11px;&quot;&gt;COVERAGE_AMOUNT&lt;/font&gt;" style="ellipse;whiteSpace=wrap;html=1;align=center;" parent="1" vertex="1">
          <mxGeometry x="1175" y="-210" width="100" height="40" as="geometry" />
        </mxCell>
        <mxCell id="S8wf1FUIOwpONpwZviLV-67" value="&lt;u&gt;TYPE_ID&lt;/u&gt;" style="ellipse;whiteSpace=wrap;html=1;align=center;" parent="1" vertex="1">
          <mxGeometry x="770" y="400" width="100" height="40" as="geometry" />
        </mxCell>
        <mxCell id="S8wf1FUIOwpONpwZviLV-68" value="DESCRIPTION" style="ellipse;whiteSpace=wrap;html=1;align=center;" parent="1" vertex="1">
          <mxGeometry x="810" y="440" width="100" height="40" as="geometry" />
        </mxCell>
        <mxCell id="S8wf1FUIOwpONpwZviLV-69" value="ENGINE_VOLUME" style="ellipse;whiteSpace=wrap;html=1;align=center;" parent="1" vertex="1">
          <mxGeometry x="580" y="440" width="100" height="40" as="geometry" />
        </mxCell>
        <mxCell id="S8wf1FUIOwpONpwZviLV-70" value="&lt;font style=&quot;font-size: 10px;&quot;&gt;DAILY_RENTAL_PRICE&lt;/font&gt;" style="ellipse;whiteSpace=wrap;html=1;align=center;" parent="1" vertex="1">
          <mxGeometry x="500" y="500" width="100" height="40" as="geometry" />
        </mxCell>
        <mxCell id="S8wf1FUIOwpONpwZviLV-71" value="&lt;font style=&quot;font-size: 10px;&quot;&gt;BAGGAGE_CAPACITY&lt;/font&gt;" style="ellipse;whiteSpace=wrap;html=1;align=center;" parent="1" vertex="1">
          <mxGeometry x="870" y="480" width="100" height="40" as="geometry" />
        </mxCell>
        <mxCell id="S8wf1FUIOwpONpwZviLV-72" value="&lt;font style=&quot;font-size: 10px;&quot;&gt;PASSANGER_CAPACITY&lt;/font&gt;" style="ellipse;whiteSpace=wrap;html=1;align=center;" parent="1" vertex="1">
          <mxGeometry x="440" y="450" width="100" height="40" as="geometry" />
        </mxCell>
        <mxCell id="S8wf1FUIOwpONpwZviLV-79" value="&lt;span style=&quot;font-size: 10px;&quot;&gt;MAKE&lt;/span&gt;" style="ellipse;whiteSpace=wrap;html=1;align=center;" parent="1" vertex="1">
          <mxGeometry x="390" y="940" width="100" height="40" as="geometry" />
        </mxCell>
        <mxCell id="S8wf1FUIOwpONpwZviLV-80" value="&lt;span style=&quot;font-size: 10px;&quot;&gt;MODEL&lt;/span&gt;" style="ellipse;whiteSpace=wrap;html=1;align=center;" parent="1" vertex="1">
          <mxGeometry x="390" y="980" width="100" height="40" as="geometry" />
        </mxCell>
        <mxCell id="S8wf1FUIOwpONpwZviLV-81" value="&lt;span style=&quot;font-size: 10px;&quot;&gt;&lt;u&gt;VIN_NUMBER&lt;/u&gt;&lt;/span&gt;" style="ellipse;whiteSpace=wrap;html=1;align=center;" parent="1" vertex="1">
          <mxGeometry x="390" y="900" width="100" height="40" as="geometry" />
        </mxCell>
        <mxCell id="S8wf1FUIOwpONpwZviLV-82" value="&lt;span style=&quot;font-size: 10px;&quot;&gt;YEAR&lt;/span&gt;" style="ellipse;whiteSpace=wrap;html=1;align=center;" parent="1" vertex="1">
          <mxGeometry x="390" y="1020" width="100" height="40" as="geometry" />
        </mxCell>
        <mxCell id="S8wf1FUIOwpONpwZviLV-84" value="AGE" style="ellipse;whiteSpace=wrap;html=1;align=center;dashed=1;" parent="1" vertex="1">
          <mxGeometry x="425" y="1060" width="100" height="40" as="geometry" />
        </mxCell>
        <mxCell id="S8wf1FUIOwpONpwZviLV-85" value="&lt;span style=&quot;font-size: 10px;&quot;&gt;COLOR&lt;/span&gt;" style="ellipse;whiteSpace=wrap;html=1;align=center;" parent="1" vertex="1">
          <mxGeometry x="510" y="1080" width="100" height="40" as="geometry" />
        </mxCell>
        <mxCell id="S8wf1FUIOwpONpwZviLV-86" value="ACCESSORIES" style="ellipse;shape=doubleEllipse;margin=3;whiteSpace=wrap;html=1;align=center;" parent="1" vertex="1">
          <mxGeometry x="610" y="1080" width="100" height="40" as="geometry" />
        </mxCell>
        <mxCell id="S8wf1FUIOwpONpwZviLV-87" value="&lt;span style=&quot;font-size: 10px;&quot;&gt;ENGINE_TYPE&lt;/span&gt;" style="ellipse;whiteSpace=wrap;html=1;align=center;" parent="1" vertex="1">
          <mxGeometry x="710" y="1080" width="100" height="40" as="geometry" />
        </mxCell>
        <mxCell id="S8wf1FUIOwpONpwZviLV-88" value="&lt;span style=&quot;font-size: 10px;&quot;&gt;CURRENT_KM_READING&lt;/span&gt;" style="ellipse;whiteSpace=wrap;html=1;align=center;" parent="1" vertex="1">
          <mxGeometry x="780" y="1050" width="100" height="40" as="geometry" />
        </mxCell>
        <mxCell id="S8wf1FUIOwpONpwZviLV-89" value="&lt;span style=&quot;font-size: 10px;&quot;&gt;LICENSE_PLATE_NUMBER&lt;/span&gt;" style="ellipse;whiteSpace=wrap;html=1;align=center;" parent="1" vertex="1">
          <mxGeometry x="780" y="1010" width="100" height="40" as="geometry" />
        </mxCell>
        <mxCell id="S8wf1FUIOwpONpwZviLV-90" value="&lt;span style=&quot;font-size: 10px;&quot;&gt;TRANSMISSION_TYPE&lt;/span&gt;" style="ellipse;whiteSpace=wrap;html=1;align=center;" parent="1" vertex="1">
          <mxGeometry x="780" y="970" width="100" height="40" as="geometry" />
        </mxCell>
        <mxCell id="S8wf1FUIOwpONpwZviLV-91" value="&lt;span style=&quot;font-size: 10px;&quot;&gt;IS_DAMAGED&lt;/span&gt;" style="ellipse;whiteSpace=wrap;html=1;align=center;" parent="1" vertex="1">
          <mxGeometry x="780" y="930" width="100" height="40" as="geometry" />
        </mxCell>
        <mxCell id="S8wf1FUIOwpONpwZviLV-92" value="&lt;span style=&quot;font-size: 10px;&quot;&gt;IS_AVAIABLE&lt;/span&gt;" style="ellipse;whiteSpace=wrap;html=1;align=center;" parent="1" vertex="1">
          <mxGeometry x="780" y="890" width="100" height="40" as="geometry" />
        </mxCell>
        <mxCell id="S8wf1FUIOwpONpwZviLV-106" value="&lt;span style=&quot;font-size: 10px;&quot;&gt;&lt;u&gt;TYPE_ID&lt;/u&gt;&lt;/span&gt;" style="ellipse;whiteSpace=wrap;html=1;align=center;" parent="1" vertex="1">
          <mxGeometry x="1060" y="1030" width="100" height="40" as="geometry" />
        </mxCell>
        <mxCell id="S8wf1FUIOwpONpwZviLV-107" value="&lt;span style=&quot;font-size: 10px;&quot;&gt;&lt;u&gt;DATE&lt;/u&gt;&lt;/span&gt;" style="ellipse;whiteSpace=wrap;html=1;align=center;" parent="1" vertex="1">
          <mxGeometry x="1210" y="1030" width="100" height="40" as="geometry" />
        </mxCell>
      </root>
    </mxGraphModel>
  </diagram>
  <diagram id="rgRdRwjsGxO8UeMs2pRa" name="Logical_Data_Model">
    <mxGraphModel dx="3154" dy="1877" grid="1" gridSize="10" guides="1" tooltips="1" connect="1" arrows="1" fold="1" page="1" pageScale="1" pageWidth="1169" pageHeight="827" math="0" shadow="0">
      <root>
        <mxCell id="0" />
        <mxCell id="1" parent="0" />
        <mxCell id="TkW5_cknkF64OZ94s102-1" value="&lt;div style=&quot;text-align: center; box-sizing: border-box; width: 100%; background: rgb(228, 228, 228); padding: 2px;&quot;&gt;CUSTOMER&lt;/div&gt;&lt;table style=&quot;width:100%;font-size:1em;&quot; cellpadding=&quot;2&quot; cellspacing=&quot;0&quot;&gt;&lt;tbody&gt;&lt;tr&gt;&lt;td&gt;PK&lt;/td&gt;&lt;td&gt;&lt;u&gt;CUSTOMER_ID&lt;/u&gt;&lt;/td&gt;&lt;/tr&gt;&lt;tr&gt;&lt;td&gt;FK&lt;/td&gt;&lt;td&gt;&lt;br&gt;RESERVATION_NUMBER&lt;br&gt;FNAME&lt;/td&gt;&lt;/tr&gt;&lt;tr&gt;&lt;td&gt;&lt;/td&gt;&lt;td&gt;MINIT&lt;br&gt;LNAME&lt;br&gt;ST_ADDRESS&lt;br&gt;CITY&lt;br&gt;ZIP_CODE&lt;br&gt;PHONE_NUMBER&lt;br&gt;GENDER&lt;br&gt;DATE_OF_BIRTH&lt;br&gt;MARITAL_STATUS&lt;br&gt;NATIONALITY&lt;br&gt;EDUCATION_LEVEL&lt;br&gt;DRIVER_LICENSE_NUMBER&lt;br&gt;PREFERRED_CREDIT_CARD_NUMBER&lt;br&gt;IS_GOLD_MEMBER&lt;br&gt;E-MAIL&lt;br&gt;&lt;br&gt;&lt;br&gt;&lt;/td&gt;&lt;/tr&gt;&lt;/tbody&gt;&lt;/table&gt;" style="verticalAlign=top;align=left;overflow=fill;html=1;whiteSpace=wrap;" vertex="1" parent="1">
          <mxGeometry x="80" y="110" width="280" height="370" as="geometry" />
        </mxCell>
        <mxCell id="TkW5_cknkF64OZ94s102-2" value="&lt;div style=&quot;box-sizing:border-box;width:100%;background:#e4e4e4;padding:2px;&quot;&gt;CUSTOMER-PREFERENCES&lt;/div&gt;&lt;table style=&quot;width:100%;font-size:1em;&quot; cellpadding=&quot;2&quot; cellspacing=&quot;0&quot;&gt;&lt;tbody&gt;&lt;tr&gt;&lt;td&gt;FK&lt;/td&gt;&lt;td&gt;CUSTOMER_ID&lt;/td&gt;&lt;/tr&gt;&lt;tr&gt;&lt;td&gt;&lt;br&gt;&lt;/td&gt;&lt;td&gt;PREFERENCES&lt;/td&gt;&lt;/tr&gt;&lt;tr&gt;&lt;td&gt;&lt;/td&gt;&lt;td&gt;&lt;br&gt;&lt;/td&gt;&lt;/tr&gt;&lt;/tbody&gt;&lt;/table&gt;" style="verticalAlign=top;align=left;overflow=fill;html=1;whiteSpace=wrap;" vertex="1" parent="1">
          <mxGeometry x="80" y="-60" width="180" height="90" as="geometry" />
        </mxCell>
        <mxCell id="TkW5_cknkF64OZ94s102-3" style="edgeStyle=orthogonalEdgeStyle;rounded=0;orthogonalLoop=1;jettySize=auto;html=1;exitX=0;exitY=0.25;exitDx=0;exitDy=0;entryX=0.001;entryY=0.078;entryDx=0;entryDy=0;entryPerimeter=0;" edge="1" parent="1" source="TkW5_cknkF64OZ94s102-2" target="TkW5_cknkF64OZ94s102-1">
          <mxGeometry relative="1" as="geometry" />
        </mxCell>
        <mxCell id="shza-NI3UAuL0imwu6o5-1" value="&lt;div style=&quot;text-align: center; box-sizing: border-box; width: 100%; background: rgb(228, 228, 228); padding: 2px;&quot;&gt;RESERVATION&lt;/div&gt;&lt;table style=&quot;width:100%;font-size:1em;&quot; cellpadding=&quot;2&quot; cellspacing=&quot;0&quot;&gt;&lt;tbody&gt;&lt;tr&gt;&lt;td&gt;PK&lt;/td&gt;&lt;td&gt;&lt;u&gt;RESERVATION_NUMBER&lt;/u&gt;&lt;/td&gt;&lt;/tr&gt;&lt;tr&gt;&lt;td&gt;&lt;br&gt;FK&lt;br&gt;FK&lt;br&gt;FK&lt;/td&gt;&lt;td&gt;&lt;br&gt;&lt;br&gt;CUSTOMER_ID&lt;br&gt;INSURANCE_ID&lt;br&gt;TYPE_ID&lt;br&gt;RESERVATION_DATE&lt;/td&gt;&lt;/tr&gt;&lt;tr&gt;&lt;td&gt;&lt;/td&gt;&lt;td&gt;RESERVATION_CANCELLATION_DATE&lt;br&gt;PICKUP_DATE&lt;br&gt;PICKUP_PLACE&lt;br&gt;ESTIMATED_RETURN_DATE&lt;br&gt;RETURN_PLACE&lt;br&gt;ESTIMATED_COST&lt;br&gt;DISCOUNT_RATE&lt;/td&gt;&lt;/tr&gt;&lt;/tbody&gt;&lt;/table&gt;" style="verticalAlign=top;align=left;overflow=fill;html=1;whiteSpace=wrap;" vertex="1" parent="1">
          <mxGeometry x="700" y="110" width="310" height="380" as="geometry" />
        </mxCell>
        <mxCell id="shza-NI3UAuL0imwu6o5-2" style="edgeStyle=orthogonalEdgeStyle;rounded=0;orthogonalLoop=1;jettySize=auto;html=1;exitX=0;exitY=0.25;exitDx=0;exitDy=0;entryX=0;entryY=0.073;entryDx=0;entryDy=0;entryPerimeter=0;" edge="1" parent="1" source="shza-NI3UAuL0imwu6o5-1" target="TkW5_cknkF64OZ94s102-1">
          <mxGeometry relative="1" as="geometry">
            <Array as="points">
              <mxPoint x="700" y="170" />
              <mxPoint x="520" y="170" />
              <mxPoint x="520" y="90" />
              <mxPoint x="60" y="90" />
              <mxPoint x="60" y="137" />
            </Array>
          </mxGeometry>
        </mxCell>
        <mxCell id="shza-NI3UAuL0imwu6o5-21" style="edgeStyle=orthogonalEdgeStyle;rounded=0;orthogonalLoop=1;jettySize=auto;html=1;exitX=0;exitY=0.25;exitDx=0;exitDy=0;" edge="1" parent="1" source="shza-NI3UAuL0imwu6o5-4">
          <mxGeometry relative="1" as="geometry">
            <mxPoint x="780" y="790" as="targetPoint" />
            <Array as="points">
              <mxPoint x="70" y="770" />
              <mxPoint x="10" y="770" />
              <mxPoint x="10" y="660" />
              <mxPoint x="570" y="660" />
              <mxPoint x="570" y="791" />
              <mxPoint x="780" y="791" />
            </Array>
          </mxGeometry>
        </mxCell>
        <mxCell id="shza-NI3UAuL0imwu6o5-4" value="&lt;div style=&quot;text-align: center; box-sizing: border-box; width: 100%; background: rgb(228, 228, 228); padding: 2px;&quot;&gt;RENTAL_HISTORY&lt;/div&gt;&lt;table style=&quot;width: 100%; font-size: 1em;&quot; cellpadding=&quot;2&quot; cellspacing=&quot;0&quot;&gt;&lt;tbody&gt;&lt;tr&gt;&lt;td&gt;PK&lt;/td&gt;&lt;td&gt;&lt;u&gt;RESERVATION_NUMBER&lt;/u&gt;&lt;/td&gt;&lt;/tr&gt;&lt;tr&gt;&lt;td&gt;&lt;br&gt;FK&lt;br&gt;FK&lt;/td&gt;&lt;td&gt;&lt;br&gt;&lt;br&gt;CUSTOMER_ID&lt;br&gt;VIN_NUMBER&lt;br&gt;PICKUP_DATE&lt;/td&gt;&lt;/tr&gt;&lt;tr&gt;&lt;td&gt;&lt;/td&gt;&lt;td&gt;PICKUP_PLACE&lt;br&gt;ESTIMATED_RETURN_DATE&lt;br&gt;ACTUAL_RETURN_DATE&lt;br&gt;RETURN_PLACE&lt;br&gt;PENALTY_COST&lt;br&gt;TOTAL_COST&lt;br&gt;INITIAL_KM_READING&lt;br&gt;FINAL_KM_READING&lt;br&gt;INITIAL_GAS_LEVEL&lt;br&gt;FINAL_GAS_LEVEL&lt;br&gt;IS_DAMAGED&lt;br&gt;DAMAGE_AMOUNT&lt;/td&gt;&lt;/tr&gt;&lt;/tbody&gt;&lt;/table&gt;" style="verticalAlign=top;align=left;overflow=fill;html=1;whiteSpace=wrap;" vertex="1" parent="1">
          <mxGeometry x="70" y="680" width="290" height="320" as="geometry" />
        </mxCell>
        <mxCell id="shza-NI3UAuL0imwu6o5-5" style="edgeStyle=orthogonalEdgeStyle;rounded=0;orthogonalLoop=1;jettySize=auto;html=1;exitX=0;exitY=0.25;exitDx=0;exitDy=0;entryX=0;entryY=0.054;entryDx=0;entryDy=0;entryPerimeter=0;" edge="1" parent="1" source="shza-NI3UAuL0imwu6o5-4" target="TkW5_cknkF64OZ94s102-1">
          <mxGeometry relative="1" as="geometry">
            <Array as="points">
              <mxPoint x="70" y="740" />
              <mxPoint x="40" y="740" />
              <mxPoint x="40" y="130" />
            </Array>
          </mxGeometry>
        </mxCell>
        <mxCell id="shza-NI3UAuL0imwu6o5-6" value="&lt;div style=&quot;box-sizing:border-box;width:100%;background:#e4e4e4;padding:2px;&quot;&gt;VEHICLE&lt;/div&gt;&lt;table style=&quot;width:100%;font-size:1em;&quot; cellpadding=&quot;2&quot; cellspacing=&quot;0&quot;&gt;&lt;tbody&gt;&lt;tr&gt;&lt;td style=&quot;text-align: left;&quot;&gt;PK&lt;/td&gt;&lt;td style=&quot;text-align: left;&quot;&gt;&lt;u&gt;VIN_NUMBER&lt;/u&gt;&lt;/td&gt;&lt;/tr&gt;&lt;tr&gt;&lt;td style=&quot;text-align: left;&quot;&gt;FK&lt;/td&gt;&lt;td style=&quot;text-align: left;&quot;&gt;&lt;br&gt;TYPE_ID&lt;br&gt;MAKE&lt;/td&gt;&lt;/tr&gt;&lt;tr&gt;&lt;td style=&quot;text-align: left;&quot;&gt;&lt;/td&gt;&lt;td&gt;&lt;div style=&quot;text-align: left;&quot;&gt;&lt;span style=&quot;font-size: 1em; background-color: initial;&quot;&gt;MODEL&lt;/span&gt;&lt;/div&gt;&lt;div style=&quot;text-align: left;&quot;&gt;&lt;span style=&quot;font-size: 1em; background-color: initial;&quot;&gt;YEAR&lt;/span&gt;&lt;/div&gt;&lt;div style=&quot;text-align: left;&quot;&gt;&lt;span style=&quot;font-size: 1em; background-color: initial;&quot;&gt;COLOR&lt;/span&gt;&lt;/div&gt;&lt;div style=&quot;text-align: left;&quot;&gt;&lt;span style=&quot;font-size: 1em; background-color: initial;&quot;&gt;ENGINE_TYPE&lt;/span&gt;&lt;/div&gt;&lt;div style=&quot;text-align: left;&quot;&gt;&lt;span style=&quot;font-size: 1em; background-color: initial;&quot;&gt;CURRENT_KM_READING&lt;/span&gt;&lt;/div&gt;&lt;div style=&quot;text-align: left;&quot;&gt;&lt;span style=&quot;font-size: 1em; background-color: initial;&quot;&gt;LICENSE_PLATE_NUMBER&lt;/span&gt;&lt;/div&gt;&lt;div style=&quot;text-align: left;&quot;&gt;&lt;span style=&quot;font-size: 1em; background-color: initial;&quot;&gt;TRANSMISSON_TYPE&lt;/span&gt;&lt;/div&gt;&lt;div style=&quot;text-align: left;&quot;&gt;&lt;span style=&quot;font-size: 1em; background-color: initial;&quot;&gt;IS_DAMAGED&lt;/span&gt;&lt;/div&gt;&lt;div style=&quot;text-align: left;&quot;&gt;&lt;span style=&quot;font-size: 1em; background-color: initial;&quot;&gt;IS_AVAIABLE&lt;/span&gt;&lt;/div&gt;&lt;/td&gt;&lt;/tr&gt;&lt;/tbody&gt;&lt;/table&gt;" style="verticalAlign=top;align=center;overflow=fill;html=1;whiteSpace=wrap;" vertex="1" parent="1">
          <mxGeometry x="780" y="760" width="180" height="240" as="geometry" />
        </mxCell>
        <mxCell id="shza-NI3UAuL0imwu6o5-9" style="edgeStyle=orthogonalEdgeStyle;rounded=0;orthogonalLoop=1;jettySize=auto;html=1;exitX=0;exitY=0.25;exitDx=0;exitDy=0;" edge="1" parent="1" source="shza-NI3UAuL0imwu6o5-8">
          <mxGeometry relative="1" as="geometry">
            <mxPoint x="780" y="790" as="targetPoint" />
            <Array as="points">
              <mxPoint x="1120" y="830" />
              <mxPoint x="1090" y="830" />
              <mxPoint x="1090" y="710" />
              <mxPoint x="740" y="710" />
              <mxPoint x="740" y="790" />
            </Array>
          </mxGeometry>
        </mxCell>
        <mxCell id="shza-NI3UAuL0imwu6o5-8" value="&lt;div style=&quot;text-align: center; box-sizing: border-box; width: 100%; background: rgb(228, 228, 228); padding: 2px;&quot;&gt;VEHICLE-ACCESSORIES&lt;/div&gt;&lt;table style=&quot;width: 100%; font-size: 1em;&quot; cellpadding=&quot;2&quot; cellspacing=&quot;0&quot;&gt;&lt;tbody&gt;&lt;tr&gt;&lt;td&gt;FK&lt;/td&gt;&lt;td&gt;&lt;u&gt;VIN_NUMBER&lt;/u&gt;&lt;/td&gt;&lt;/tr&gt;&lt;tr&gt;&lt;td&gt;&lt;br&gt;&lt;/td&gt;&lt;td&gt;ACCESSORIES&lt;/td&gt;&lt;/tr&gt;&lt;tr&gt;&lt;td&gt;&lt;/td&gt;&lt;td&gt;&lt;br&gt;&lt;/td&gt;&lt;/tr&gt;&lt;/tbody&gt;&lt;/table&gt;" style="verticalAlign=top;align=left;overflow=fill;html=1;whiteSpace=wrap;" vertex="1" parent="1">
          <mxGeometry x="1120" y="800" width="210" height="140" as="geometry" />
        </mxCell>
        <mxCell id="shza-NI3UAuL0imwu6o5-10" style="edgeStyle=orthogonalEdgeStyle;rounded=0;orthogonalLoop=1;jettySize=auto;html=1;exitX=0;exitY=0.25;exitDx=0;exitDy=0;entryX=-0.007;entryY=0.099;entryDx=0;entryDy=0;entryPerimeter=0;" edge="1" parent="1" source="TkW5_cknkF64OZ94s102-1" target="shza-NI3UAuL0imwu6o5-4">
          <mxGeometry relative="1" as="geometry">
            <Array as="points">
              <mxPoint x="80" y="170" />
              <mxPoint y="170" />
              <mxPoint y="712" />
            </Array>
          </mxGeometry>
        </mxCell>
        <mxCell id="shza-NI3UAuL0imwu6o5-12" value="&lt;div style=&quot;text-align: center; box-sizing: border-box; width: 100%; background: rgb(228, 228, 228); padding: 2px;&quot;&gt;INSURANCE&lt;/div&gt;&lt;table style=&quot;width:100%;font-size:1em;&quot; cellpadding=&quot;2&quot; cellspacing=&quot;0&quot;&gt;&lt;tbody&gt;&lt;tr&gt;&lt;td&gt;PK&lt;/td&gt;&lt;td&gt;INSURANCE_ID&lt;/td&gt;&lt;/tr&gt;&lt;tr&gt;&lt;td&gt;&lt;br&gt;&lt;/td&gt;&lt;td&gt;&lt;br&gt;&lt;/td&gt;&lt;/tr&gt;&lt;tr&gt;&lt;td&gt;&lt;/td&gt;&lt;td&gt;COMPANY_NAME&lt;br&gt;COVERAGE_AMOUNT&lt;/td&gt;&lt;/tr&gt;&lt;/tbody&gt;&lt;/table&gt;" style="verticalAlign=top;align=left;overflow=fill;html=1;whiteSpace=wrap;" vertex="1" parent="1">
          <mxGeometry x="810" y="-160" width="180" height="160" as="geometry" />
        </mxCell>
        <mxCell id="shza-NI3UAuL0imwu6o5-13" style="edgeStyle=orthogonalEdgeStyle;rounded=0;orthogonalLoop=1;jettySize=auto;html=1;exitX=0;exitY=0.25;exitDx=0;exitDy=0;entryX=0.004;entryY=0.165;entryDx=0;entryDy=0;entryPerimeter=0;" edge="1" parent="1" source="shza-NI3UAuL0imwu6o5-1" target="shza-NI3UAuL0imwu6o5-12">
          <mxGeometry relative="1" as="geometry">
            <Array as="points">
              <mxPoint x="700" y="200" />
              <mxPoint x="650" y="200" />
              <mxPoint x="650" y="-134" />
            </Array>
          </mxGeometry>
        </mxCell>
        <mxCell id="shza-NI3UAuL0imwu6o5-20" style="edgeStyle=orthogonalEdgeStyle;rounded=0;orthogonalLoop=1;jettySize=auto;html=1;exitX=0;exitY=0.25;exitDx=0;exitDy=0;entryX=0;entryY=0.25;entryDx=0;entryDy=0;" edge="1" parent="1" source="shza-NI3UAuL0imwu6o5-14" target="shza-NI3UAuL0imwu6o5-19">
          <mxGeometry relative="1" as="geometry">
            <Array as="points">
              <mxPoint x="1360" y="500" />
              <mxPoint x="1300" y="500" />
              <mxPoint x="1300" y="778" />
            </Array>
          </mxGeometry>
        </mxCell>
        <mxCell id="shza-NI3UAuL0imwu6o5-14" value="&lt;div style=&quot;text-align: center; box-sizing: border-box; width: 100%; background: rgb(228, 228, 228); padding: 2px;&quot;&gt;VEHICLE_TYPE&lt;/div&gt;&lt;table style=&quot;width:100%;font-size:1em;&quot; cellpadding=&quot;2&quot; cellspacing=&quot;0&quot;&gt;&lt;tbody&gt;&lt;tr&gt;&lt;td&gt;PK&lt;/td&gt;&lt;td&gt;TYPE_ID&lt;/td&gt;&lt;/tr&gt;&lt;tr&gt;&lt;td&gt;FK&lt;/td&gt;&lt;td&gt;&lt;br&gt;DATE&lt;br&gt;DESCRIPTION&lt;/td&gt;&lt;/tr&gt;&lt;tr&gt;&lt;td&gt;&lt;/td&gt;&lt;td&gt;ENGINE_VOLUME&lt;br&gt;DAILY_RENTAL_PRICE&lt;br&gt;BAGGAGE_CAPACITY&lt;br&gt;PASSANGER_CAPACITY&lt;/td&gt;&lt;/tr&gt;&lt;/tbody&gt;&lt;/table&gt;" style="verticalAlign=top;align=left;overflow=fill;html=1;whiteSpace=wrap;" vertex="1" parent="1">
          <mxGeometry x="1360" y="440" width="180" height="170" as="geometry" />
        </mxCell>
        <mxCell id="shza-NI3UAuL0imwu6o5-16" style="edgeStyle=orthogonalEdgeStyle;rounded=0;orthogonalLoop=1;jettySize=auto;html=1;exitX=0;exitY=0.25;exitDx=0;exitDy=0;entryX=0.015;entryY=0.167;entryDx=0;entryDy=0;entryPerimeter=0;" edge="1" parent="1" source="shza-NI3UAuL0imwu6o5-1" target="shza-NI3UAuL0imwu6o5-14">
          <mxGeometry relative="1" as="geometry">
            <Array as="points">
              <mxPoint x="700" y="210" />
              <mxPoint x="620" y="210" />
              <mxPoint x="620" y="510" />
              <mxPoint x="1185" y="510" />
              <mxPoint x="1185" y="465" />
            </Array>
          </mxGeometry>
        </mxCell>
        <mxCell id="shza-NI3UAuL0imwu6o5-18" style="edgeStyle=orthogonalEdgeStyle;rounded=0;orthogonalLoop=1;jettySize=auto;html=1;exitX=0;exitY=0.25;exitDx=0;exitDy=0;entryX=0;entryY=0.158;entryDx=0;entryDy=0;entryPerimeter=0;" edge="1" parent="1" source="shza-NI3UAuL0imwu6o5-6" target="shza-NI3UAuL0imwu6o5-14">
          <mxGeometry relative="1" as="geometry">
            <Array as="points">
              <mxPoint x="760" y="820" />
              <mxPoint x="760" y="540" />
              <mxPoint x="1340" y="540" />
              <mxPoint x="1340" y="464" />
            </Array>
          </mxGeometry>
        </mxCell>
        <mxCell id="shza-NI3UAuL0imwu6o5-19" value="&lt;div style=&quot;text-align: center; box-sizing: border-box; width: 100%; background: rgb(228, 228, 228); padding: 2px;&quot;&gt;AVAILIBILITY&lt;/div&gt;&lt;table style=&quot;width:100%;font-size:1em;&quot; cellpadding=&quot;2&quot; cellspacing=&quot;0&quot;&gt;&lt;tbody&gt;&lt;tr&gt;&lt;td&gt;PK&lt;/td&gt;&lt;td&gt;TYPE_ID&lt;/td&gt;&lt;/tr&gt;&lt;tr&gt;&lt;td&gt;PK&lt;/td&gt;&lt;td&gt;DATE&lt;/td&gt;&lt;/tr&gt;&lt;tr&gt;&lt;td&gt;&lt;/td&gt;&lt;td&gt;&lt;br&gt;NUMBER_OF_AVAILABLE_VEHICLES&lt;/td&gt;&lt;/tr&gt;&lt;/tbody&gt;&lt;/table&gt;" style="verticalAlign=top;align=left;overflow=fill;html=1;whiteSpace=wrap;" vertex="1" parent="1">
          <mxGeometry x="1510" y="737" width="250" height="163" as="geometry" />
        </mxCell>
      </root>
    </mxGraphModel>
  </diagram>
</mxfile>
